<svg xmlns="http://www.w3.org/2000/svg" viewBox="0 0 64 64" width="256" height="256">
  <rect width="64" height="64" fill="#0A0E14" rx="6"/>
  <rect x="30" y="6" width="4" height="9" fill="#3366AA"/>
  <circle cx="32" cy="5" r="3.5" fill="#88AADD"/>
  <rect x="14" y="14" width="36" height="28" fill="#3366AA" rx="5"/>
  <rect x="20" y="20" width="10" height="8" fill="#FFD700" rx="1.5"/>
  <rect x="34" y="20" width="10" height="8" fill="#FFD700" rx="1.5"/>
  <rect x="23" y="33" width="18" height="4" fill="#0A0E14" rx="1"/>
  <rect x="25" y="34" width="4" height="2" fill="#88AADD"/>
  <rect x="31" y="34" width="4" height="2" fill="#88AADD"/>
  <rect x="37" y="34" width="4" height="2" fill="#88AADD"/>
  <rect x="26" y="42" width="12" height="6" fill="#3366AA"/>
  <rect x="14" y="48" width="36" height="12" fill="#224488" rx="3"/>
  <rect x="18" y="51" width="6" height="5" fill="#88AADD" rx="1" opacity="0.7"/>
  <rect x="26" y="51" width="12" height="2" fill="#88AADD" opacity="0.5" rx="1"/>
  <rect x="26" y="55" width="8" height="2" fill="#88AADD" opacity="0.3" rx="1"/>
</svg>